{"title":"Tourist [The] (2010) BRrip 480p [Greek Subs] Omifast","uid":6337473,"size":657349352,"categoryP":"video","categoryS":"movies","magnet":"?xt=urn:btih:f81989615e2efa382746877ee185b8116b73f1c5&amp;dn=Tourist+%5BThe%5D+%282010%29+BRrip+480p+%5BGreek+Subs%5D+Omifast&amp;tr=udp%3A%2F%2Ftracker.openbittorrent.com%3A80&amp;tr=udp%3A%2F%2Fopen.demonii.com%3A1337&amp;tr=udp%3A%2F%2Ftracker.coppersurfer.tk%3A6969&amp;tr=udp%3A%2F%2Fexodus.desync.com%3A6969","seeders":1,"leechers":0,"uploader":"OmifastGR","files":-1,"time":1303528127,"description":"-------------------------------------------------\nAVC (Advanced Video Coding) H264\nHigh Efficiency Dolby Digital Stereo\n-------------------------------------------------\n\nIMDB &lt;a href=&quot;\nhttp://www.imdb.com/title/tt1243957/&quot; rel=&quot;nofollow&quot; target=&quot;_NEW&quot;&gt;\nhttp://www.imdb.com/title/tt1243957/&lt;/a&gt;\n\n\nRevolves around Frank, an American tourist visiting Italy to mend a broken heart. Elise is an extraordinary woman who deliberately crosses his path. \n\nJohnny Depp, Angelina Jolie and Paul Bettany\n\n\n\nTourist [The] (2010) BRrip 480p [Greek Subs] Omifast Media Info\n\nFormat                           : MPEG-4\nFile size                        : 601 MiB\nDuration                         : 1h 43mn\nOverall bit rate                 : 812 Kbps\n\nVideo\nFormat/Info                      : Advanced Video Codec\nDuration                         : 1h 43mn\nBit rate mode                    : Variable\nBit rate                         : 729 Kbps\nMaximum bit rate                 : 5 105 Kbps\nWidth                            : 720 pixels\nHeight                           : 480 pixels\nDisplay aspect ratio             : 16:9\nFrame rate mode                  : Constant\nFrame rate                       : 25.000 fps\nStandard                         : PAL\nStream size                      : 539 MiB (90%)\nLanguage                         : English\n\nAudio\nID                               : 2\nFormat                           : AAC\nFormat/Info                      : Advanced Audio Codec\nFormat profile                   : HE-AAC / LC\nCodec ID                         : 40\nDuration                         : 1h 43mn\nBit rate mode                    : Variable\nBit rate                         : 80.0 Kbps\nMaximum bit rate                 : 94.1 Kbps\nChannel(s)                       : 2 channels\nChannel positions                : Front: L R\nSampling rate                    : 48.0 KHz / 24.0 KHz\nCompression mode                 : Lossy\nStream size                      : 59.2 MiB (10%)\nLanguage                         : English\n\n","torrent":{"xt":"urn:btih:f81989615e2efa382746877ee185b8116b73f1c5","amp;dn":"Tourist+%5BThe%5D+%282010%29+BRrip+480p+%5BGreek+Subs%5D+Omifast","amp;tr":["udp%3A%2F%2Ftracker.openbittorrent.com%3A80","udp%3A%2F%2Fopen.demonii.com%3A1337","udp%3A%2F%2Ftracker.coppersurfer.tk%3A6969","udp%3A%2F%2Fexodus.desync.com%3A6969"],"infoHash":"f81989615e2efa382746877ee185b8116b73f1c5","infoHashBuffer":{"type":"Buffer","data":[248,25,137,97,94,46,250,56,39,70,135,126,225,133,184,17,107,115,241,197]},"announce":[],"urlList":[]}}